{"title":"Gravity 720p 5.1aac","uid":10038857,"size":1180142410,"categoryP":"video","categoryS":"hd___movies","magnet":"?xt=urn:btih:851882f957c04affc4936d83661d5e020687ecf8&amp;dn=Gravity+720p+5.1aac&amp;tr=udp%3A%2F%2Ftracker.openbittorrent.com%3A80&amp;tr=udp%3A%2F%2Fopen.demonii.com%3A1337&amp;tr=udp%3A%2F%2Ftracker.coppersurfer.tk%3A6969&amp;tr=udp%3A%2F%2Fexodus.desync.com%3A6969","seeders":0,"leechers":1,"uploader":"prnvsujay","files":2,"time":1398438858,"description":"General\nComplete name                    : E:HollywoodHigh DefinitionGravity - 5.1 Surround (HD-720p)Gravity.mp4\nFormat                           : MPEG-4\nFormat profile                   : Base Media / Version 2\nCodec ID                         : mp42\nFile size                        : 1.10 GiB\nDuration                         : 1h 30mn\nOverall bit rate                 : 1 730 Kbps\nEncoded date                     : UTC 2014-02-07 13:44:35\nTagged date                      : UTC 2014-02-07 18:59:15\n\nVideo\nID                               : 1\nFormat                           : AVC\nFormat/Info                      : Advanced Video Codec\nFormat profile                   : &lt;a class=&quot;__cf_email__&quot; href=&quot;/cdn-cgi/l/email-protection&quot; data-cfemail=&quot;a7efcec0cfe7eb948996&quot;&gt;[email&amp;#160;protected]&lt;/a&gt;&lt;script cf-hash='f9e31' type=&quot;text/javascript&quot;&gt;\n/* &lt;![CDATA[ */!function(){try{var t=&quot;currentScript&quot;in document?document.currentScript:function(){for(var t=document.getElementsByTagName(&quot;script&quot;),e=t.length;e--;)if(t[e].getAttribute(&quot;cf-hash&quot;))return t[e]}();if(t&amp;&amp;t.previousSibling){var e,r,n,i,c=t.previousSibling,a=c.getAttribute(&quot;data-cfemail&quot;);if(a){for(e=&quot;&quot;,r=parseInt(a.substr(0,2),16),n=2;a.length-n;n+=2)i=parseInt(a.substr(n,2),16)^r,e+=String.fromCharCode(i);e=document.createTextNode(e),c.parentNode.replaceChild(e,c)}}}catch(u){}}();/* ]]&gt; */&lt;/script&gt;\nFormat settings, CABAC           : Yes\nFormat settings, ReFrames        : 3 frames\nCodec ID                         : avc1\nCodec ID/Info                    : Advanced Video Coding\nDuration                         : 1h 30mn\nBit rate mode                    : Variable\nBit rate                         : 1 277 Kbps\nWidth                            : 1 280 pixels\nHeight                           : 536 pixels\nDisplay aspect ratio             : 2.35:1\nFrame rate mode                  : Variable\nFrame rate                       : 24.000 fps\nMinimum frame rate               : 19.048 fps\nMaximum frame rate               : 48.780 fps\nColor space                      : YUV\nChroma subsampling               : 4:2:0\nBit depth                        : 8 bits\nScan type                        : Progressive\nBits/(Pixel*Frame)               : 0.078\nStream size                      : 830 MiB (74%)\nEncoded date                     : UTC 2014-02-07 13:44:35\nTagged date                      : UTC 2014-02-07 18:59:15\nColor primaries                  : BT.709-5, BT.1361, IEC 61966-2-4, SMPTE RP177\nTransfer characteristics         : BT.709-5, BT.1361\nMatrix coefficients              : BT.709-5, BT.1361, IEC 61966-2-4 709, SMPTE RP177\n\nAudio\nID                               : 2\nFormat                           : AAC\nFormat/Info                      : Advanced Audio Codec\nFormat profile                   : LC\nCodec ID                         : 40\nDuration                         : 1h 30mn\nBit rate mode                    : Variable\nBit rate                         : 448 Kbps\nMaximum bit rate                 : 552 Kbps\nChannel(s)                       : 6 channels\nChannel positions                : Front: L C R, Side: L R, LFE\nSampling rate                    : 48.0 KHz\nCompression mode                 : Lossy\nStream size                      : 292 MiB (26%)\nLanguage                         : English\nEncoded date                     : UTC 2014-02-07 13:44:35\nTagged date                      : UTC 2014-02-07 18:59:15\n\nText\nID                               : 3\nFormat                           : Apple text\nCodec ID                         : text\nDuration                         : 1h 30mn\nBit rate mode                    : Variable\nBit rate                         : 0\nStream size                      : 231 Bytes (0%)\nEncoded date                     : UTC 2014-02-07 13:44:35\nTagged date                      : UTC 2014-02-07 18:59:15\n","torrent":{"xt":"urn:btih:851882f957c04affc4936d83661d5e020687ecf8","amp;dn":"Gravity+720p+5.1aac","amp;tr":["udp%3A%2F%2Ftracker.openbittorrent.com%3A80","udp%3A%2F%2Fopen.demonii.com%3A1337","udp%3A%2F%2Ftracker.coppersurfer.tk%3A6969","udp%3A%2F%2Fexodus.desync.com%3A6969"],"infoHash":"851882f957c04affc4936d83661d5e020687ecf8","infoHashBuffer":{"type":"Buffer","data":[133,24,130,249,87,192,74,255,196,147,109,131,102,29,94,2,6,135,236,248]},"announce":[],"urlList":[]}}